nColumns=19
nRows=112
DataType=double
version=3
OpenSimVersion=4.1
endheader
time	ground_force_calcn_r_vx	ground_force_calcn_r_vy	ground_force_calcn_r_vz	ground_force_calcn_r_px	ground_force_calcn_r_py	ground_force_calcn_r_pz	ground_force_calcn_r_mx	ground_force_calcn_r_my	ground_force_calcn_r_mz	ground_force_calcn_l_vx	ground_force_calcn_l_vy	ground_force_calcn_l_vz	ground_force_calcn_l_px	ground_force_calcn_l_py	ground_force_calcn_l_pz	ground_force_calcn_l_mx	ground_force_calcn_l_my	ground_force_calcn_l_mz
4.125	-195.659	1607.56	43.2494	1.16066	0	-0.301342	0.254832	-2.09373	-0.0563292	0	0	0	0	0	0	0	0	0
4.13333	-161.534	1739.08	68.1589	1.12825	0	-0.303765	0.521379	-5.61318	-0.219994	0	0	0	0	0	0	0	0	0
4.14167	-103.8	1835.53	77.3784	1.09423	0	-0.305689	0.453654	-8.02217	-0.338181	0	0	0	0	0	0	0	0	0
4.15	-43.2972	1889.66	75.9707	1.06189	0	-0.306885	0.208747	-9.11055	-0.366275	0	0	0	0	0	0	0	0	0
4.15833	15.7402	1900.32	71.5479	1.03073	0	-0.307117	-0.0750681	-9.06298	-0.341226	0	0	0	0	0	0	0	0	0
4.16667	74.0971	1866.25	67.7572	0.999415	0	-0.306898	-0.328664	-8.2779	-0.300543	0	0	0	0	0	0	0	0	0
4.175	127.303	1781.61	64.5798	0.968412	0	-0.306964	-0.512068	-7.16643	-0.259769	0	0	0	0	0	0	0	0	0
4.18333	170.36	1642.39	61.6278	0.93877	0	-0.307391	-0.623933	-6.01515	-0.225708	0	0	0	0	0	0	0	0	0
4.19167	202.894	1450.25	58.7542	0.909747	0	-0.30779	-0.690591	-4.9362	-0.199982	0	0	0	0	0	0	0	0	0
4.2	229.045	1213.05	54.6208	0.877838	0	-0.307962	-0.737041	-3.90346	-0.175764	0	0	0	0	0	0	0	0	0
4.20833	243.364	949.768	47.0544	0.841162	0	-0.307888	-0.732507	-2.85873	-0.14163	0	0	0	0	0	0	0	0	0
4.21667	233.18	692.952	35.7533	0.803411	0	-0.307325	-0.611537	-1.81733	-0.0937663	0	0	0	0	0	0	0	0	0
4.225	195.344	470.983	23.677	0.771379	0	-0.306112	-0.364532	-0.878905	-0.0441839	0	0	0	0	0	0	0	0	0
4.23333	143.694	296.204	14.5585	0.749568	0	-0.3036	-0.0706701	-0.145676	-0.00716	0	0	0	0	0	0	0	0	0
4.24167	94.4553	169.127	9.38011	0.737929	0	-0.297023	0.176775	0.316524	0.0175551	0	0	0	0	0	0	0	0	0
4.25	55.0698	85.3064	6.22232	0.735118	0	-0.281881	0.31486	0.487738	0.035576	0	0	0	0	0	0	0	0	0
4.25833	27.2554	37.2167	3.2007	0.755799	0	-0.251985	0.308498	0.421247	0.036228	0	0	0	0	0	0	0	0	0
4.26667	10.8222	14.6571	0.479885	0.899994	0	-0.197682	0.161932	0.219314	0.00718051	0	0	0	0	0	0	0	0	0
4.275	0	0	0	0	0	0	0	0	0	0	0	0	0	0	0	0	0	0
4.28333	0	0	0	0	0	0	0	0	0	0	0	0	0	0	0	0	0	0
4.29167	0	0	0	0	0	0	0	0	0	0	0	0	0	0	0	0	0	0
4.3	0	0	0	0	0	0	0	0	0	0	0	0	0	0	0	0	0	0
4.30833	0	0	0	0	0	0	0	0	0	0	0	0	0	0	0	0	0	0
4.31667	0	0	0	0	0	0	0	0	0	0	0	0	0	0	0	0	0	0
4.325	0	0	0	0	0	0	0	0	0	0	0	0	0	0	0	0	0	0
4.33333	0	0	0	0	0	0	0	0	0	0	0	0	0	0	0	0	0	0
4.34167	0	0	0	0	0	0	0	0	0	0	0	0	0	0	0	0	0	0
4.35	0	0	0	0	0	0	0	0	0	0	0	0	0	0	0	0	0	0
4.35833	0	0	0	0	0	0	0	0	0	0	0	0	0	0	0	0	0	0
4.36667	0	0	0	0	0	0	0	0	0	0	0	0	0	0	0	0	0	0
4.375	0	0	0	0	0	0	0	0	0	-5.54483	27.4729	0.566392	1.32817	0	-0.3116	-0.183541	0.909388	0.0187483
4.38333	0	0	0	0	0	0	0	0	0	-24.7318	80.5053	3.4632	1.32582	0	-0.353237	0.489468	-1.59328	-0.0685403
4.39167	0	0	0	0	0	0	0	0	0	-69.172	203.773	13.0957	1.31834	0	-0.363561	1.48458	-4.37339	-0.281061
4.4	0	0	0	0	0	0	0	0	0	-132.829	408.838	32.2545	1.31048	0	-0.361911	2.26518	-6.97205	-0.550047
4.40833	0	0	0	0	0	0	0	0	0	-179.437	659.825	54.934	1.29445	0	-0.356658	2.37644	-8.73867	-0.727541
4.41667	0	0	0	0	0	0	0	0	0	-186.875	921.68	65.8556	1.2622	0	-0.351341	1.79972	-8.87637	-0.634231
4.425	0	0	0	0	0	0	0	0	0	-183.496	1181.91	52.7108	1.2218	0	-0.347245	1.07072	-6.8966	-0.307575
4.43333	0	0	0	0	0	0	0	0	0	-189.934	1418.77	19.2528	1.18662	0	-0.34379	0.428665	-3.20205	-0.043452
4.44167	0	0	0	0	0	0	0	0	0	-189.058	1617.26	-17.6457	1.15585	0	-0.340011	-0.139867	1.19646	-0.0130544
4.45	0	0	0	0	0	0	0	0	0	-162.855	1777.97	-42.7729	1.12362	0	-0.336357	-0.477182	5.20966	-0.125329
4.45833	0	0	0	0	0	0	0	0	0	-113.822	1896.72	-51.8383	1.08998	0	-0.33371	-0.481026	8.01572	-0.219074
4.46667	0	0	0	0	0	0	0	0	0	-59.0706	1960.66	-49.4862	1.05893	0	-0.332448	-0.279245	9.26864	-0.233937
4.475	0	0	0	0	0	0	0	0	0	-9.30893	1967.16	-42.9446	1.03136	0	-0.33204	-0.0432909	9.14823	-0.199713
4.48333	0	0	0	0	0	0	0	0	0	39.3015	1925.09	-37.6231	1.00496	0	-0.331616	0.167077	8.18387	-0.159942
4.49167	0	0	0	0	0	0	0	0	0	85.5099	1839.87	-35.8249	0.978653	0	-0.330817	0.324694	6.98626	-0.136032
4.5	0	0	0	0	0	0	0	0	0	122.431	1711.09	-37.4007	0.95317	0	-0.329492	0.431235	6.02694	-0.131736
4.50833	0	0	0	0	0	0	0	0	0	148.217	1539.42	-41.0896	0.928775	0	-0.327483	0.530449	5.50935	-0.147054
4.51667	0	0	0	0	0	0	0	0	0	165.061	1327.31	-45.2646	0.904273	0	-0.325001	0.665973	5.35529	-0.182629
4.525	0	0	0	0	0	0	0	0	0	175.69	1080.12	-47.8045	0.876695	0	-0.322554	0.859727	5.28549	-0.233927
4.53333	0	0	0	0	0	0	0	0	0	179.222	813.346	-46.3711	0.842627	0	-0.320691	1.09244	4.95771	-0.282652
4.54167	0	0	0	0	0	0	0	0	0	169.748	558.074	-39.7239	0.802985	0	-0.31947	1.25836	4.13709	-0.294479
4.55	0	0	0	0	0	0	0	0	0	140.497	347.74	-28.9039	0.768473	0	-0.318273	1.15919	2.86908	-0.238476
4.55833	0	0	0	0	0	0	0	0	0	98.3925	197.939	-17.0419	0.755458	0	-0.3165	0.716744	1.4419	-0.124142
4.56667	0	0	0	0	0	0	0	0	0	58.0141	104.453	-7.74977	0.773551	0	-0.312906	0.0759474	0.136741	-0.0101454
4.575	0	0	0	0	0	0	0	0	0	28.6685	51.0058	-2.93918	0.788762	0	-0.309488	-0.518969	-0.92333	0.0532063
4.58333	0	0	0	0	0	0	0	0	0	11.8001	22.0645	-1.72107	0.698928	0	-0.318498	-0.889603	-1.66343	0.12975
4.59167	0	0	0	0	0	0	0	0	0	0	0	0	0	0	0	0	0	0
4.6	0	0	0	0	0	0	0	0	0	0	0	0	0	0	0	0	0	0
4.60833	0	0	0	0	0	0	0	0	0	0	0	0	0	0	0	0	0	0
4.61667	0	0	0	0	0	0	0	0	0	0	0	0	0	0	0	0	0	0
4.625	0	0	0	0	0	0	0	0	0	0	0	0	0	0	0	0	0	0
4.63333	0	0	0	0	0	0	0	0	0	0	0	0	0	0	0	0	0	0
4.64167	0	0	0	0	0	0	0	0	0	0	0	0	0	0	0	0	0	0
4.65	0	0	0	0	0	0	0	0	0	0	0	0	0	0	0	0	0	0
4.65833	0	0	0	0	0	0	0	0	0	0	0	0	0	0	0	0	0	0
4.66667	0	0	0	0	0	0	0	0	0	0	0	0	0	0	0	0	0	0
4.675	0	0	0	0	0	0	0	0	0	0	0	0	0	0	0	0	0	0
4.68333	0	0	0	0	0	0	0	0	0	0	0	0	0	0	0	0	0	0
4.69167	-3.17937	12.9364	-3.48769	1.03347	0	-0.116931	0.76454	-3.11082	0.838683	0	0	0	0	0	0	0	0	0
4.7	-12.6985	30.8183	-8.96737	1.23008	0	-0.226184	0.627901	-1.52387	0.44341	0	0	0	0	0	0	0	0	0
4.70833	-39.0037	87.3497	-18.2313	1.31189	0	-0.276939	-0.130454	0.292154	-0.0609774	0	0	0	0	0	0	0	0	0
4.71667	-94.2927	212.006	-29.1426	1.32309	0	-0.287164	-1.03598	2.32927	-0.320184	0	0	0	0	0	0	0	0	0
4.725	-162.94	400.841	-37.8338	1.31742	0	-0.28901	-1.69308	4.16505	-0.393124	0	0	0	0	0	0	0	0	0
4.73333	-198.183	617.16	-40.9262	1.29477	0	-0.290514	-1.72266	5.3645	-0.355741	0	0	0	0	0	0	0	0	0
4.74167	-188.937	847.133	-36.4124	1.2533	0	-0.293601	-1.1869	5.32166	-0.228742	0	0	0	0	0	0	0	0	0
4.75	-175.547	1088.34	-22.2712	1.2085	0	-0.297883	-0.597444	3.70399	-0.0757963	0	0	0	0	0	0	0	0	0
4.75833	-175.871	1319.08	2.59407	1.17171	0	-0.301618	-0.116346	0.872631	0.00171609	0	0	0	0	0	0	0	0	0
4.76667	-171.501	1518.24	33.9592	1.13991	0	-0.304372	0.27964	-2.47556	-0.0553719	0	0	0	0	0	0	0	0	0
4.775	-141.988	1679.09	62.0601	1.10724	0	-0.306673	0.472814	-5.59131	-0.206658	0	0	0	0	0	0	0	0	0
4.78333	-87.7148	1799.32	78.5711	1.07301	0	-0.308675	0.382953	-7.85563	-0.343033	0	0	0	0	0	0	0	0	0
4.79167	-26.9955	1874.02	82.7831	1.04005	0	-0.3101	0.128858	-8.94531	-0.395151	0	0	0	0	0	0	0	0	0
4.8	30.2596	1901.42	80.0243	1.00908	0	-0.310661	-0.14179	-8.90966	-0.374977	0	0	0	0	0	0	0	0	0
4.80833	84.9525	1881.81	75.58	0.979024	0	-0.310632	-0.36406	-8.06442	-0.323895	0	0	0	0	0	0	0	0	0
4.81667	134.692	1812.79	71.4959	0.950019	0	-0.310529	-0.506175	-6.81249	-0.268683	0	0	0	0	0	0	0	0	0
4.825	175.912	1691.38	67.7651	0.922619	0	-0.31061	-0.571054	-5.49064	-0.219983	0	0	0	0	0	0	0	0	0
4.83333	206.51	1518.23	64.0101	0.895996	0	-0.310873	-0.583058	-4.28656	-0.180726	0	0	0	0	0	0	0	0	0
4.84167	229.112	1297.63	59.4246	0.86733	0	-0.310994	-0.57138	-3.23615	-0.148199	0	0	0	0	0	0	0	0	0
4.85	243.835	1039.22	52.4115	0.833263	0	-0.310749	-0.536895	-2.28825	-0.115404	0	0	0	0	0	0	0	0	0
4.85833	241.812	769.686	41.8585	0.793522	0	-0.3102	-0.43945	-1.39877	-0.0760704	0	0	0	0	0	0	0	0	0
4.86667	214.286	525.428	29.1246	0.754237	0	-0.309118	-0.241155	-0.59131	-0.0327765	0	0	0	0	0	0	0	0	0
4.875	166.025	328.463	17.6933	0.726847	0	-0.306715	0.0343779	0.0680129	0.00366365	0	0	0	0	0	0	0	0	0
4.88333	112.735	185.968	10.1591	0.725218	0	-0.300433	0.317009	0.522939	0.0285672	0	0	0	0	0	0	0	0	0
4.89167	67.0079	94.8779	6.1572	0.754539	0	-0.285656	0.532702	0.754263	0.0489487	0	0	0	0	0	0	0	0	0
4.9	34.6411	44.2473	3.55094	0.798923	0	-0.253197	0.625341	0.798751	0.0641015	0	0	0	0	0	0	0	0	0
4.90833	14.975	19.9001	1.03845	0.856081	0	-0.189501	0.566389	0.752669	0.0392767	0	0	0	0	0	0	0	0	0
4.91667	0	0	0	0	0	0	0	0	0	0	0	0	0	0	0	0	0	0
4.925	0	0	0	0	0	0	0	0	0	0	0	0	0	0	0	0	0	0
4.93333	0	0	0	0	0	0	0	0	0	0	0	0	0	0	0	0	0	0
4.94167	0	0	0	0	0	0	0	0	0	0	0	0	0	0	0	0	0	0
4.95	0	0	0	0	0	0	0	0	0	0	0	0	0	0	0	0	0	0
4.95833	0	0	0	0	0	0	0	0	0	0	0	0	0	0	0	0	0	0
4.96667	0	0	0	0	0	0	0	0	0	0	0	0	0	0	0	0	0	0
4.975	0	0	0	0	0	0	0	0	0	0	0	0	0	0	0	0	0	0
4.98333	0	0	0	0	0	0	0	0	0	0	0	0	0	0	0	0	0	0
4.99167	0	0	0	0	0	0	0	0	0	0	0	0	0	0	0	0	0	0
5	0	0	0	0	0	0	0	0	0	0	0	0	0	0	0	0	0	0
5.00833	0	0	0	0	0	0	0	0	0	0	0	0	0	0	0	0	0	0
5.01667	0	0	0	0	0	0	0	0	0	-3.54365	22.1034	1.32213	1.30384	0	-0.26418	-0.0880246	0.549051	0.0328418
5.025	0	0	0	0	0	0	0	0	0	-20.2882	62.6406	4.075	1.29267	0	-0.319477	0.580361	-1.79188	-0.116568
5.03333	0	0	0	0	0	0	0	0	0	-59.8216	166.251	12.5824	1.30727	0	-0.340977	1.67207	-4.64688	-0.351689
5.04167	0	0	0	0	0	0	0	0	0	-121.236	361.687	30.2276	1.31578	0	-0.343008	2.55681	-7.62784	-0.637489
5.05	0	0	0	0	0	0	0	0	0	-170.842	625.885	52.9008	1.30907	0	-0.337611	2.724	-9.97945	-0.843479
